<?xml version="1.0" standalone="no"?>
<!DOCTYPE svg PUBLIC "-//W3C//DTD SVG 20010904//EN"
 "http://www.w3.org/TR/2001/REC-SVG-20010904/DTD/svg10.dtd">
<svg version="1.0" xmlns="http://www.w3.org/2000/svg"
 width="512.000000pt" height="512.000000pt" viewBox="0 0 512.000000 512.000000"
 preserveAspectRatio="xMidYMid meet">

<g transform="translate(0.000000,512.000000) scale(0.100000,-0.100000)"
fill="#000000" stroke="none">
<path d="M1742 5009 c-24 -4 -61 -18 -83 -31 -109 -62 -1230 -839 -1271 -881
-99 -100 -141 -254 -103 -382 21 -76 16 -67 287 -458 l228 -328 -35 -43 c-19
-23 -47 -69 -62 -102 l-28 -59 -3 -969 c-3 -1057 -4 -1023 54 -1121 37 -64
113 -131 189 -167 69 -32 73 -33 233 -36 l162 -4 68 -70 c108 -113 215 -178
369 -224 118 -36 305 -38 427 -5 154 41 303 132 403 245 l48 56 820 0 c516 0
836 4 864 11 121 27 229 116 287 234 47 97 54 146 54 392 0 195 2 214 18 219
53 17 73 28 102 57 68 66 70 76 70 437 0 294 -2 329 -19 366 -22 49 -92 110
-143 126 l-38 11 0 186 c0 197 -10 262 -51 342 -28 55 -93 125 -146 156 -24
14 -43 26 -43 28 0 2 88 106 197 232 111 129 205 247 216 273 43 96 18 232
-59 316 -43 47 -757 667 -1013 879 -147 122 -189 146 -275 152 -78 7 -142 -9
-195 -47 -21 -15 -167 -177 -326 -359 -159 -182 -292 -328 -295 -324 -4 5
-121 174 -261 378 -139 203 -269 385 -289 405 -94 94 -228 135 -358 109z m183
-168 c22 -10 54 -31 70 -47 31 -29 561 -791 572 -822 7 -17 446 -666 513 -757
20 -27 56 -77 79 -110 l42 -60 -97 -3 c-70 -2 -101 1 -110 10 -10 11 -186 267
-910 1325 -97 141 -116 153 -181 109 -66 -45 -144 -29 -220 46 -33 33 -47 40
-70 36 -23 -4 -752 -497 -804 -544 -28 -25 -29 -62 -3 -110 13 -25 24 -62 24
-82 -1 -51 -31 -113 -70 -144 -52 -41 -46 -66 53 -220 48 -74 132 -199 187
-279 l101 -144 -58 -7 c-32 -5 -70 -12 -85 -17 -26 -9 -30 -4 -265 336 -131
190 -246 362 -255 382 -39 80 -15 193 54 257 33 31 1177 817 1233 847 42 23
149 22 200 -2z m1548 -145 c49 -20 219 -165 210 -179 -6 -10 -672 -775 -718
-825 -10 -11 -31 14 -112 130 -54 78 -102 149 -107 155 -4 8 99 136 285 350
161 186 301 344 311 352 43 30 87 36 131 17z m391 -318 c33 -29 63 -53 65 -54
4 -3 -779 -908 -788 -911 -9 -3 -103 137 -99 147 3 11 751 870 757 870 2 0 31
-23 65 -52z m-2235 -2 c6 -8 35 -24 64 -37 54 -23 164 -32 218 -17 25 7 39
-12 377 -505 193 -281 392 -572 442 -644 l91 -133 -119 0 -119 0 -14 42 c-35
106 -129 210 -233 259 -141 66 -278 63 -425 -8 -77 -37 -161 -125 -206 -217
l-38 -76 -187 0 -186 0 -115 162 c-62 89 -150 218 -195 286 l-81 124 33 55
c47 78 59 138 44 219 -7 37 -9 69 -4 74 16 16 628 430 635 430 3 0 12 -6 18
-14z m2787 -469 c263 -225 282 -249 269 -328 -8 -47 -10 -50 -248 -322 l-199
-227 -418 0 -418 0 -82 117 c-60 86 -79 121 -73 133 4 9 188 224 407 478 l400
461 60 -52 c34 -30 170 -146 302 -260z m-2168 -688 c24 -10 56 -28 73 -40 32
-23 109 -114 109 -130 0 -5 -124 -9 -295 -9 -162 0 -295 3 -295 8 0 12 50 84
84 120 70 76 215 99 324 51z m2063 -360 c56 -26 110 -79 135 -134 22 -47 24
-62 24 -247 l0 -198 -319 0 c-290 0 -325 -2 -383 -20 -223 -69 -363 -280 -345
-518 15 -196 116 -335 298 -416 94 -41 144 -46 466 -46 l305 0 -4 -237 c-4
-213 -6 -243 -24 -283 -30 -64 -69 -107 -128 -138 l-51 -27 -782 -3 c-431 -1
-783 -1 -783 1 0 3 7 24 16 48 51 143 61 333 24 473 -92 360 -425 617 -799
616 -318 -1 -619 -197 -748 -488 -84 -191 -84 -439 2 -646 8 -18 3 -19 -92
-14 -120 6 -173 27 -232 95 -75 85 -72 28 -69 1079 l3 939 22 40 c38 71 109
121 193 133 24 4 762 7 1640 7 1451 0 1598 -1 1631 -16z m370 -758 l29 -29 0
-296 c0 -291 0 -295 -22 -321 -13 -14 -32 -25 -43 -25 -11 1 -45 1 -75 0 -30
-1 -201 -2 -380 -3 -393 -2 -397 -2 -501 102 -80 80 -103 136 -102 252 1 127
64 234 175 294 89 48 132 53 526 54 l364 1 29 -29z m-2543 -557 c339 -86 551
-429 478 -774 -18 -85 -59 -175 -85 -189 -11 -6 -25 -29 -31 -50 -24 -89 -220
-227 -380 -267 -88 -22 -269 -15 -360 14 -118 39 -283 156 -320 228 -8 16 -29
47 -46 70 -45 60 -85 191 -91 299 -19 335 228 632 569 685 66 11 192 3 266
-16z"/>
<path d="M1741 4724 c-45 -58 -17 -109 64 -119 70 -9 100 -1 121 31 16 23 16
28 1 59 -12 25 -26 37 -54 44 -67 19 -109 14 -132 -15z"/>
<path d="M562 3915 c-28 -36 -38 -110 -18 -141 31 -46 109 -43 133 7 7 14 15
43 19 66 5 36 3 45 -19 67 -35 35 -88 36 -115 1z"/>
<path d="M1455 3996 c-177 -83 -219 -322 -80 -461 56 -55 116 -79 200 -80 204
-1 336 192 268 390 -22 65 -93 136 -158 158 -72 25 -169 22 -230 -7z m184
-154 c65 -35 89 -118 51 -179 -26 -43 -61 -64 -107 -65 -80 -1 -136 54 -136
134 0 45 23 82 66 108 40 25 82 25 126 2z"/>
<path d="M3900 2011 c-151 -46 -221 -197 -156 -336 40 -87 115 -135 210 -135
112 0 214 87 238 203 10 47 9 61 -7 103 -42 115 -183 196 -285 165z m117 -173
c35 -33 32 -89 -8 -122 -48 -41 -95 -31 -124 24 -21 41 -19 67 10 95 32 33 89
34 122 3z"/>
<path d="M1911 1441 c-11 -11 -23 -36 -27 -55 -6 -35 -7 -36 -53 -36 -132 -1
-241 -116 -241 -256 0 -113 65 -201 180 -243 48 -18 80 -21 204 -21 162 0 188
-7 220 -60 27 -47 15 -105 -29 -134 -37 -24 -111 -31 -140 -12 -30 20 -85 21
-111 1 -23 -17 -46 -18 -97 -4 -43 12 -77 57 -77 102 0 38 -40 77 -80 77 -78
0 -105 -97 -54 -198 44 -88 134 -142 236 -142 31 0 40 -4 48 -24 11 -31 47
-56 80 -56 29 0 65 29 74 58 5 15 19 20 64 25 149 13 254 125 254 270 0 109
-78 216 -180 248 -20 6 -113 14 -207 16 -93 3 -178 9 -187 14 -10 5 -25 24
-34 41 -20 39 -12 87 22 119 25 23 30 24 191 24 l165 0 29 -33 c16 -18 29 -43
29 -57 0 -68 61 -110 118 -81 35 18 42 33 42 92 0 123 -117 234 -247 234 -52
0 -53 1 -53 29 0 15 -9 40 -21 55 -26 33 -88 37 -118 7z"/>
</g>
</svg>
