<?xml version="1.0" standalone="no"?>
<!DOCTYPE svg PUBLIC "-//W3C//DTD SVG 20010904//EN"
 "http://www.w3.org/TR/2001/REC-SVG-20010904/DTD/svg10.dtd">
<svg version="1.0" xmlns="http://www.w3.org/2000/svg"
 width="512.000000pt" height="512.000000pt" viewBox="0 0 512.000000 512.000000"
 preserveAspectRatio="xMidYMid meet">

<g transform="translate(0.000000,512.000000) scale(0.100000,-0.100000)"
fill="#000000" stroke="none">
<path d="M3521 5110 c-209 -30 -449 -120 -601 -226 l-55 -39 -1320 -5 -1320
-5 -57 -28 c-64 -32 -111 -80 -142 -146 l-21 -46 0 -1995 0 -1995 21 -46 c53
-114 144 -170 285 -177 l87 -4 7 -54 c9 -74 65 -182 121 -234 25 -23 75 -56
112 -73 l67 -32 1515 0 1515 0 67 32 c93 44 151 100 196 191 l37 76 3 645 c2
477 0 653 -9 674 -13 30 -55 57 -89 57 -29 0 -76 -26 -86 -47 -5 -10 -11 -306
-14 -658 l-5 -640 -24 -38 c-13 -21 -42 -50 -64 -65 l-41 -27 -1486 0 -1486 0
-41 27 c-22 15 -51 44 -64 65 l-24 38 -3 1432 -2 1432 407 3 408 3 57 28 c64
32 111 80 142 146 20 44 21 64 24 454 l3 407 369 0 c204 0 370 -4 370 -8 0 -5
-9 -35 -21 -68 -78 -224 -98 -504 -53 -733 l7 -31 -212 0 -211 0 -32 -29 c-27
-24 -33 -36 -33 -71 0 -35 6 -47 33 -71 l32 -29 239 0 238 0 52 -107 c80 -164
151 -264 281 -393 168 -168 349 -281 560 -348 168 -54 257 -67 445 -66 178 1
285 16 435 64 101 32 317 143 400 206 285 215 476 516 552 867 29 136 31 398
4 532 -60 305 -207 572 -428 780 -192 181 -425 301 -687 356 -110 23 -358 33
-460 19z m360 -205 c259 -39 490 -156 679 -345 189 -189 306 -420 345 -679
100 -663 -360 -1286 -1025 -1387 -662 -99 -1285 362 -1386 1026 -66 442 115
882 475 1153 262 198 589 281 912 232z m-1262 -284 c-8 -10 -41 -55 -74 -100
l-60 -81 -483 0 c-333 0 -490 -3 -505 -11 -31 -16 -1065 -1048 -1083 -1081
-12 -23 -14 -225 -14 -1388 l0 -1360 -60 0 c-70 0 -111 17 -128 55 -19 40 -17
3900 2 3934 29 53 -26 50 1240 51 1153 0 1178 0 1165 -19z m-1190 -1164 c-23
-54 -39 -57 -376 -57 l-308 0 345 345 345 345 3 -302 c2 -212 -1 -311 -9 -331z"/>
<path d="M3634 4696 c-32 -32 -34 -37 -34 -106 0 -69 2 -74 34 -106 37 -37 70
-43 115 -20 36 19 51 55 51 126 0 71 -15 107 -51 126 -45 23 -78 17 -115 -20z"/>
<path d="M4345 4479 c-11 -6 -161 -151 -332 -323 l-313 -311 -182 182 c-101
99 -193 186 -205 192 -88 45 -176 -48 -129 -137 25 -46 458 -470 488 -477 16
-4 40 -4 55 0 31 7 724 690 749 737 47 89 -44 184 -131 137z"/>
<path d="M2721 3786 c-59 -33 -67 -102 -17 -152 32 -32 37 -34 106 -34 69 0
74 2 106 34 50 50 42 121 -17 152 -35 18 -146 18 -178 0z"/>
<path d="M4484 3766 c-37 -37 -43 -70 -20 -115 19 -37 55 -51 127 -51 69 0
110 18 127 55 16 35 15 62 -5 95 -22 38 -52 50 -129 50 -62 0 -68 -2 -100 -34z"/>
<path d="M3651 2936 c-36 -20 -50 -55 -51 -123 0 -74 14 -109 51 -129 45 -23
78 -17 115 20 32 32 34 37 34 106 0 69 -2 74 -34 106 -37 37 -73 43 -115 20z"/>
<path d="M1234 2670 c-56 -23 -72 -108 -30 -157 l24 -28 622 0 622 0 24 28
c33 38 33 96 0 134 l-24 28 -609 2 c-334 1 -618 -2 -629 -7z"/>
<path d="M3891 2066 c-87 -48 -50 -186 49 -186 51 0 100 49 100 99 0 75 -83
124 -149 87z"/>
<path d="M1234 1950 c-56 -23 -72 -108 -30 -157 l24 -28 992 0 992 0 24 28
c33 38 33 96 0 134 l-24 28 -979 2 c-539 1 -988 -2 -999 -7z"/>
<path d="M1231 1226 c-87 -48 -50 -186 49 -186 51 0 100 49 100 99 0 75 -83
124 -149 87z"/>
<path d="M1631 1226 c-68 -38 -64 -146 6 -175 21 -8 232 -11 801 -9 l774 3 24
28 c33 38 33 96 0 134 l-24 28 -779 2 c-633 2 -782 0 -802 -11z"/>
</g>
</svg>
