<?xml version="1.0" standalone="no"?>
<!DOCTYPE svg PUBLIC "-//W3C//DTD SVG 20010904//EN"
 "http://www.w3.org/TR/2001/REC-SVG-20010904/DTD/svg10.dtd">
<svg version="1.0" xmlns="http://www.w3.org/2000/svg"
 width="512.000000pt" height="512.000000pt" viewBox="0 0 512.000000 512.000000"
 preserveAspectRatio="xMidYMid meet">

<g transform="translate(0.000000,512.000000) scale(0.100000,-0.100000)"
fill="#000000" stroke="none">
<path d="M4139 4891 c-16 -17 -29 -40 -29 -54 0 -19 -11 -31 -43 -51 -129 -75
-166 -247 -80 -364 32 -43 88 -77 193 -120 103 -42 120 -55 120 -98 0 -85
-101 -120 -203 -70 -89 43 -147 33 -173 -31 -30 -70 9 -122 125 -169 45 -19
57 -28 63 -53 18 -69 111 -95 161 -45 15 14 29 42 33 61 5 26 15 38 43 53 49
25 106 86 130 140 31 68 29 171 -5 238 -33 67 -82 104 -196 151 -51 21 -103
44 -115 52 -46 28 -20 80 45 92 25 5 45 0 82 -19 60 -31 98 -26 135 18 48 57
21 129 -64 169 -37 18 -51 31 -56 51 -9 40 -59 78 -102 78 -25 0 -43 -8 -64
-29z"/>
<path d="M1964 3711 c-20 -12 -37 -34 -45 -59 -10 -30 -27 -49 -64 -74 -70
-47 -105 -117 -105 -208 0 -126 61 -193 243 -265 51 -20 98 -44 105 -53 21
-28 14 -71 -17 -103 -25 -25 -37 -29 -84 -29 -37 0 -72 8 -110 25 -63 29 -93
27 -132 -12 -60 -61 -15 -151 94 -189 47 -17 56 -24 72 -61 24 -56 68 -80 120
-64 41 12 69 47 69 85 0 20 9 30 39 45 102 52 169 176 158 293 -10 113 -74
185 -212 238 -113 44 -145 64 -145 93 0 55 85 76 145 37 67 -44 156 -4 158 73
1 49 -27 86 -91 117 -34 16 -52 31 -52 43 0 29 -18 56 -50 72 -38 20 -58 19
-96 -4z"/>
<path d="M3893 3703 c-12 -2 -34 -18 -48 -34 l-25 -31 0 -1619 0 -1619 -150 0
-150 0 0 855 c0 921 1 902 -51 939 -21 14 -65 16 -356 16 l-333 0 -32 -29 -33
-29 -3 -876 -2 -876 -150 0 -150 0 0 965 c0 1056 3 1009 -58 1034 -20 8 -122
11 -361 9 l-333 -3 -24 -28 -24 -28 0 -975 0 -974 -150 0 -150 0 0 555 c0 609
0 609 -59 639 -45 24 -647 24 -692 0 -59 -30 -59 -30 -59 -638 l0 -555 -221
-3 -221 -3 -29 -33 c-42 -47 -36 -103 15 -144 20 -17 167 -18 2516 -18 2349 0
2496 1 2516 18 51 41 57 97 15 144 l-29 33 -221 3 -221 3 0 1617 c0 1479 -1
1620 -16 1641 -34 48 -61 51 -386 50 -167 -1 -313 -4 -325 -6z m527 -1748 l0
-1555 -200 0 -200 0 0 1555 0 1555 200 0 200 0 0 -1555z m-2210 -650 l0 -905
-200 0 -200 0 0 905 0 905 200 0 200 0 0 -905z m1108 -97 l-3 -803 -200 0
-200 0 -3 803 -2 802 205 0 205 0 -2 -802z m-2213 -303 l0 -500 -200 0 -200 0
-3 490 c-1 270 0 496 3 503 3 10 50 12 202 10 l198 -3 0 -500z"/>
<path d="M3072 3508 c-33 -9 -72 -57 -72 -90 0 -9 -19 -27 -43 -41 -77 -45
-117 -122 -117 -220 0 -75 24 -132 70 -171 36 -30 144 -86 202 -105 88 -29
111 -82 62 -140 -24 -29 -30 -31 -91 -31 -49 0 -74 5 -100 21 -66 41 -141 20
-163 -45 -22 -68 30 -129 142 -165 28 -9 38 -19 43 -41 8 -36 58 -80 91 -80
55 0 104 47 104 100 0 13 14 27 38 39 51 26 107 85 134 140 18 35 23 63 23
121 0 132 -62 211 -209 266 -115 43 -146 63 -146 95 0 60 82 78 150 33 31 -21
47 -25 73 -20 70 13 106 92 69 152 -11 17 -45 43 -76 60 -34 17 -56 36 -56 46
0 24 -46 75 -72 80 -13 2 -38 0 -56 -4z"/>
<path d="M839 2891 c-16 -16 -29 -40 -29 -54 0 -18 -12 -32 -49 -55 -134 -83
-158 -278 -47 -380 49 -45 86 -65 195 -108 43 -16 79 -37 88 -51 19 -29 10
-73 -22 -103 -33 -31 -124 -32 -182 -2 -72 38 -130 27 -159 -30 -20 -38 -12
-87 19 -116 23 -22 123 -72 145 -72 6 0 12 -12 12 -26 0 -37 50 -84 90 -84 61
0 110 45 110 100 0 12 14 27 38 39 94 48 155 152 155 261 0 128 -68 212 -215
268 -100 38 -148 66 -148 87 0 9 11 27 25 40 32 33 80 33 125 0 36 -26 87 -33
121 -15 30 17 52 68 45 106 -7 36 -73 100 -113 110 -15 4 -30 22 -42 49 -22
50 -45 65 -96 65 -27 0 -44 -8 -66 -29z"/>
</g>
</svg>
