<?xml version="1.0" standalone="no"?>
<!DOCTYPE svg PUBLIC "-//W3C//DTD SVG 20010904//EN"
 "http://www.w3.org/TR/2001/REC-SVG-20010904/DTD/svg10.dtd">
<svg version="1.0" xmlns="http://www.w3.org/2000/svg"
 width="640.000000pt" height="640.000000pt" viewBox="0 0 640.000000 640.000000"
 preserveAspectRatio="xMidYMid meet">

<g transform="translate(0.000000,640.000000) scale(0.100000,-0.100000)"
fill="#000000" stroke="none">
<path d="M2565 3790 c-129 -37 -150 -52 -380 -265 -56 -52 -147 -132 -223
-194 -76 -63 -124 -81 -160 -62 -25 13 -32 -1 -32 -65 0 -38 6 -51 41 -89 23
-25 47 -45 54 -45 14 0 95 -63 193 -150 35 -30 65 -53 68 -50 3 3 12 -6 21
-20 9 -16 12 -18 7 -5 -3 11 -7 26 -7 33 0 6 -3 10 -5 7 -3 -3 -12 9 -19 27
-12 28 -12 34 3 47 9 9 14 11 11 5 -4 -7 0 -17 8 -24 14 -12 19 -7 16 13 -1 5
3 6 8 3 5 -4 8 -16 6 -28 -3 -11 -2 -18 2 -14 3 3 12 1 19 -5 18 -15 26 4 14
33 -10 21 -10 21 -5 -5 4 -19 2 -26 -5 -22 -5 3 -10 14 -10 23 0 10 -6 27 -14
38 -10 14 -12 24 -4 35 8 12 9 12 5 -1 -3 -9 2 -25 10 -35 15 -19 15 -19 10 3
-3 12 -1 20 3 17 5 -3 11 3 13 12 4 17 5 17 6 0 0 -10 6 -15 11 -12 6 4 7 12
4 18 -4 7 9 -3 28 -21 19 -18 38 -29 43 -25 4 5 5 0 2 -10 -4 -11 -3 -16 3
-12 9 6 105 -74 255 -210 90 -83 196 -125 312 -126 124 0 150 12 247 111 47
48 86 93 86 99 0 7 4 10 9 6 5 -3 13 0 17 6 4 8 3 9 -4 5 -7 -4 -12 -1 -12 6
0 8 -3 9 -8 3 -10 -14 -52 -17 -52 -4 0 5 5 7 10 4 6 -3 10 -2 10 4 0 5 -13
12 -29 16 -22 5 -28 11 -24 23 4 14 3 14 -5 2 -6 -8 -8 -18 -6 -22 3 -4 0 -8
-7 -8 -7 0 -9 8 -6 21 3 12 3 18 0 15 -4 -3 -15 1 -25 11 -10 9 -18 12 -18 7
0 -5 -9 5 -20 21 -11 17 -20 24 -20 17 0 -7 -4 -11 -9 -7 -5 3 -13 0 -17 -6
-4 -8 -3 -9 5 -5 6 4 14 0 17 -9 6 -14 9 -14 16 -3 7 10 8 8 4 -5 -3 -10 -2
-15 3 -12 5 3 12 1 16 -5 4 -6 11 -7 17 -4 7 4 8 2 4 -5 -4 -6 -12 -9 -17 -6
-5 4 -9 0 -9 -7 0 -10 -2 -10 -9 0 -4 8 -12 13 -17 13 -5 -1 -10 4 -10 9 -1 6
-2 15 -3 22 0 6 -7 3 -15 -8 -14 -19 -14 -19 -13 1 1 11 -3 19 -9 18 -6 -1
-11 3 -11 10 0 7 -4 21 -9 31 -5 14 -4 17 4 12 7 -4 12 -13 12 -21 0 -8 5 -17
10 -20 19 -12 10 13 -15 43 -13 16 -22 32 -20 36 3 3 2 4 -2 1 -3 -3 -17 4
-29 16 l-22 21 2 -27 c2 -14 9 -32 16 -38 10 -10 11 -7 5 13 -7 22 -6 23 8 12
13 -11 13 -16 0 -42 -15 -31 -27 -41 -17 -15 3 8 -1 24 -10 37 -9 12 -16 31
-16 41 0 10 -7 29 -16 42 -9 14 -12 29 -8 37 5 7 7 24 6 38 -2 23 -1 23 8 5 9
-18 10 -17 7 7 -2 15 -1 25 3 23 5 -3 11 2 14 11 5 13 9 14 20 4 12 -9 17 -7
26 10 6 12 9 28 6 36 -3 8 -2 13 3 9 5 -3 12 1 15 7 3 7 3 2 0 -12 -4 -19 -3
-22 5 -10 6 8 11 24 11 36 0 28 9 35 31 23 15 -7 19 -7 17 3 -2 7 2 12 9 11 9
-2 10 4 3 21 -7 20 -3 29 30 61 27 26 40 33 45 24 6 -8 4 -10 -5 -4 -9 6 -11
4 -5 -5 6 -10 12 -8 25 8 10 12 21 18 24 14 4 -3 3 5 -3 20 -8 22 -6 29 14 48
15 14 25 18 30 11 3 -6 11 -9 16 -6 5 4 9 1 9 -6 0 -7 3 -9 7 -6 3 4 -38 51
-93 106 -75 75 -107 100 -134 105 -19 3 -45 8 -58 11 -13 2 -43 5 -66 6 -27 2
-43 7 -43 16 0 9 4 10 14 2 9 -9 13 -8 13 0 0 7 4 10 9 7 5 -4 7 3 4 13 -5 19
-46 36 -63 26 -5 -3 -11 -1 -15 4 -9 16 -165 10 -230 -9z m567 -345 c-8 -16
-9 -16 -15 -1 -4 10 -3 15 3 11 6 -3 10 -1 10 6 0 7 3 10 6 6 3 -3 2 -13 -4
-22z m-109 -116 c-8 -8 -13 -7 -18 2 -5 8 -4 10 3 5 7 -4 12 -2 12 5 0 7 3 9
7 6 4 -4 2 -12 -4 -18z m-91 -104 c-8 -16 -9 -16 -15 -1 -4 10 -3 15 3 11 6
-3 10 -1 10 6 0 7 3 10 6 6 3 -3 2 -13 -4 -22z m-84 -102 c-7 -9 -6 -20 6 -38
9 -13 16 -30 16 -37 0 -14 -25 24 -36 54 -3 10 -10 15 -15 12 -5 -3 -6 2 -2
11 5 13 7 14 14 3 6 -9 9 -6 9 12 0 19 2 22 10 10 5 -9 5 -19 -2 -27z m32
-128 c0 -5 -5 -3 -10 5 -5 8 -10 20 -10 25 0 6 5 3 10 -5 5 -8 10 -19 10 -25z
m66 -26 c1 -25 -1 -28 -8 -15 -5 10 -7 24 -4 32 8 21 11 17 12 -17z m-831 -69
c0 -3 4 -12 10 -20 8 -13 6 -13 -8 -2 -9 8 -15 19 -14 25 1 7 -3 11 -10 10 -7
-2 -10 4 -6 13 5 14 7 14 17 -2 6 -11 11 -21 11 -24z m972 -42 c-3 -7 -5 -2
-5 12 0 14 2 19 5 13 2 -7 2 -19 0 -25z m-26 -11 c-10 -9 -11 -8 -5 6 3 10 9
15 12 12 3 -3 0 -11 -7 -18z m86 -9 c2 -18 0 -20 -7 -8 -12 18 -13 30 -2 30 4
0 9 -10 9 -22z"/>
<path d="M3167 3502 c-11 -12 -13 -22 -7 -32 9 -13 10 -13 11 0 1 8 1 19 0 24
-1 5 5 6 13 3 10 -4 13 -1 9 9 -7 18 -7 18 -26 -4z"/>
<path d="M3064 3388 c-16 -18 -25 -30 -20 -26 5 5 15 3 22 -3 10 -8 11 -5 6
13 -5 21 -4 22 14 8 18 -14 18 -14 4 4 -14 18 -13 19 2 13 12 -4 15 -2 11 9
-7 18 -5 19 -39 -18z"/>
<path d="M2992 3290 c0 -14 2 -19 5 -12 2 6 2 18 0 25 -3 6 -5 1 -5 -13z"/>
<path d="M2896 3194 c-4 -9 -4 -19 -1 -22 2 -3 7 3 11 12 4 9 4 19 1 22 -2 3
-7 -3 -11 -12z"/>
<path d="M2230 2978 c-8 -21 -9 -22 -10 -3 -1 11 -4 15 -6 9 -2 -6 3 -26 11
-45 16 -33 16 -33 10 -4 l-7 30 29 -25 28 -25 -22 26 c-32 35 -29 56 3 22 l25
-28 -22 33 c-13 17 -24 32 -26 32 -2 0 -8 -10 -13 -22z"/>
<path d="M2990 2995 c0 -5 5 -17 10 -25 5 -8 10 -10 10 -5 0 6 -5 17 -10 25
-5 8 -10 11 -10 5z"/>
<path d="M2120 2941 c0 -6 4 -13 10 -16 6 -3 7 1 4 9 -7 18 -14 21 -14 7z"/>
<path d="M3070 2936 c0 -2 8 -10 18 -17 15 -13 16 -12 3 4 -13 16 -21 21 -21
13z"/>
<path d="M2200 2795 c19 -19 36 -35 39 -35 3 0 -10 16 -29 35 -19 19 -36 35
-39 35 -3 0 10 -16 29 -35z"/>
</g>
</svg>
